<svg xmlns="http://www.w3.org/2000/svg" width="600" height="116pt" viewBox="0 0 450 116">
    <g class="graph">
        <path fill="#fff" d="M0 116V0h449.51v116z"/>
        <g class="node" transform="translate(4 112)">
            <ellipse cx="247.06" cy="-90" fill="none" stroke="#000" rx="39.07" ry="18"/>
            <text xml:space="preserve" x="247.06" y="-84.95" font-family="Times New Roman,serif" font-size="14" text-anchor="middle">:core:ui</text>
        </g>
        <g class="node" transform="translate(4 112)">
            <ellipse cx="82.06" cy="-18" fill="none" stroke="#000" rx="82.06" ry="18"/>
            <text xml:space="preserve" x="82.06" y="-12.95" font-family="Times New Roman,serif" font-size="14" text-anchor="middle">:core:designsystem</text>
        </g>
        <g stroke="red" stroke-width="2" class="edge">
            <path fill="none" d="M223.07 34.87c-24.65 10.46-61.05 25.9-90.13 38.24"/>
            <path fill="red" d="m135.95 75.64-10.58.68 7.84-7.13z"/>
        </g>
        <g class="node" transform="translate(4 112)">
            <ellipse cx="247.06" cy="-18" fill="none" stroke="#000" rx="65.17" ry="18"/>
            <text xml:space="preserve" x="247.06" y="-12.95" font-family="Times New Roman,serif" font-size="14" text-anchor="middle">:core:common</text>
        </g>
        <g stroke="#000" class="edge">
            <path fill="none" d="M251.06 40.3v24.16"/>
            <path d="m254.56 64.38-3.5 10-3.5-10z"/>
        </g>
        <g class="node" transform="translate(4 112)">
            <ellipse cx="386.06" cy="-18" fill="none" stroke="#000" rx="55.45" ry="18"/>
            <text xml:space="preserve" x="386.06" y="-12.95" font-family="Times New Roman,serif" font-size="14" text-anchor="middle">:core:model</text>
        </g>
        <g stroke="#000" class="edge">
            <path fill="none" d="M276.88 36c20.79 10.47 50.35 25.36 74.05 37.29"/>
            <path d="m352.31 70.07 7.35 7.62-10.5-1.37z"/>
        </g>
    </g>
</svg>
