<svg xmlns="http://www.w3.org/2000/svg" width="604pt" height="404pt" viewBox="0 0 604 404">
    <g class="graph" transform="translate(4 400)">
        <title>G</title>
        <path fill="#fff" d="M-4 4v-404h604.43V4z"/>
        <g class="node">
            <title>:app</title>
            <ellipse cx="298.43" cy="-378" fill="none" stroke="#000" rx="27" ry="18"/>
            <text xml:space="preserve" x="298.43" y="-372.95" font-family="Times New Roman,serif" font-size="14" text-anchor="middle">:app</text>
        </g>
        <g class="node">
            <title>:feature:leaderboard</title>
            <ellipse cx="121.43" cy="-306" fill="none" stroke="#000" rx="85.13" ry="18"/>
            <text xml:space="preserve" x="121.43" y="-300.95" font-family="Times New Roman,serif" font-size="14" text-anchor="middle">:feature:leaderboard</text>
        </g>
        <g class="edge">
            <title>:app-&gt;:feature:leaderboard</title>
            <path fill="none" stroke="red" stroke-width="2" d="M275.66-367.99c-26.4 10.44-70.68 27.95-105.04 41.54"/>
            <path fill="red" stroke="red" stroke-width="2" d="m173.71-323.91-10.58.42 8.01-6.93z"/>
        </g>
        <g class="node">
            <title>:feature:schedule</title>
            <ellipse cx="298.43" cy="-306" fill="none" stroke="#000" rx="73.87" ry="18"/>
            <text xml:space="preserve" x="298.43" y="-300.95" font-family="Times New Roman,serif" font-size="14" text-anchor="middle">:feature:schedule</text>
        </g>
        <g class="edge">
            <title>:app-&gt;:feature:schedule</title>
            <path fill="none" stroke="#000" d="M298.43-359.7v24.16"/>
            <path stroke="#000" d="m301.93-335.62-3.5 10-3.5-10z"/>
        </g>
        <g class="node">
            <title>:feature:settings</title>
            <ellipse cx="460.43" cy="-306" fill="none" stroke="#000" rx="69.78" ry="18"/>
            <text xml:space="preserve" x="460.43" y="-300.95" font-family="Times New Roman,serif" font-size="14" text-anchor="middle">:feature:settings</text>
        </g>
        <g class="edge">
            <title>:app-&gt;:feature:settings</title>
            <path fill="none" stroke="#000" d="M320.62-367.41c24.26 10.48 63.8 27.56 94.65 40.89"/>
            <path stroke="#000" d="m416.6-329.75 7.79 7.18-10.57-.76z"/>
        </g>
        <g class="node">
            <title>:core:common</title>
            <ellipse cx="280.43" cy="-18" fill="none" stroke="#000" rx="65.17" ry="18"/>
            <text xml:space="preserve" x="280.43" y="-12.95" font-family="Times New Roman,serif" font-size="14" text-anchor="middle">:core:common</text>
        </g>
        <g class="edge">
            <title>:app-&gt;:core:common</title>
            <path fill="none" stroke="#000" d="M325.39-374.56c58.65 5.78 195.45 22.04 231.04 50.56 33.85 27.12 40 45.63 40 89-627 235-627 235 0 74 0 104.65-145.97 132.64-239.49 139.84"/>
            <path stroke="#000" d="m357.26-17.68-10.22-2.79 9.73-4.19z"/>
        </g>
        <g class="node">
            <title>:core:domain</title>
            <ellipse cx="141.43" cy="-234" fill="none" stroke="#000" rx="60.05" ry="18"/>
            <text xml:space="preserve" x="141.43" y="-228.95" font-family="Times New Roman,serif" font-size="14" text-anchor="middle">:core:domain</text>
        </g>
        <g class="edge">
            <title>:app-&gt;:core:domain</title>
            <path fill="none" stroke="#000" d="M271.45-375.91c-62.3 3.14-213.24 14.53-244.02 51.91-10.17 12.35-8.6 22.51 0 36 12.25 19.2 33.44 31.55 54.26 39.45"/>
            <path stroke="#000" d="m82.76-251.89 8.3 6.58-10.59.04z"/>
        </g>
        <g class="node">
            <title>:core:network</title>
            <ellipse cx="190.43" cy="-90" fill="none" stroke="#000" rx="62.1" ry="18"/>
            <text xml:space="preserve" x="190.43" y="-84.95" font-family="Times New Roman,serif" font-size="14" text-anchor="middle">:core:network</text>
        </g>
        <g class="edge">
            <title>:app-&gt;:core:network</title>
            <path fill="none" stroke="#000" d="M271.33-376.13c-64.21 2.69-222.61 13.21-254.9 52.13-62.52 75.37 69.59 170.28 137.28 211.86"/>
            <path stroke="#000" d="m155.16-115.35 6.75 8.16-10.37-2.17z"/>
        </g>
        <g class="node">
            <title>:core:ui</title>
            <ellipse cx="439.43" cy="-234" fill="none" stroke="#000" rx="39.07" ry="18"/>
            <text xml:space="preserve" x="439.43" y="-228.95" font-family="Times New Roman,serif" font-size="14" text-anchor="middle">:core:ui</text>
        </g>
        <g class="edge">
            <title>:app-&gt;:core:ui</title>
            <path fill="none" stroke="#000" d="M325.41-375.19c57.16 4.44 187.38 18.05 214.02 51.19 10.03 12.47 8.25 22.29 0 36-12.16 20.21-34.91 33.13-55.64 41.14"/>
            <path stroke="#000" d="m485.22-243.66-10.6.05 8.26-6.64z"/>
        </g>
        <g class="edge">
            <title>:feature:leaderboard-&gt;:core:domain</title>
            <path fill="none" stroke="red" stroke-width="2" d="M126.38-287.7c2.13 7.46 4.68 16.38 7.06 24.73"/>
            <path fill="red" stroke="red" stroke-width="2" d="m136.33-265.59-.61 10.58-6.12-8.66z"/>
        </g>
        <g class="edge">
            <title>:feature:leaderboard-&gt;:core:ui</title>
            <path fill="none" stroke="#000" d="M179.02-292.32c61.62 13.56 158.12 34.8 214.73 47.26"/>
            <path stroke="#000" d="m394.36-248.51 9.02 5.57-10.52 1.27z"/>
        </g>
        <g class="edge">
            <title>:feature:schedule-&gt;:core:domain</title>
            <path fill="none" stroke="#000" d="M263.98-289.64c-23.46 10.46-54.67 24.38-79.73 35.55"/>
            <path stroke="#000" d="m185.87-250.98-10.56.87 7.71-7.26z"/>
        </g>
        <g class="edge">
            <title>:feature:schedule-&gt;:core:ui</title>
            <path fill="none" stroke="#000" d="M330.08-289.29c21.73 10.79 50.62 25.13 73.25 36.36"/>
            <path stroke="#000" d="m404.8-256.1 7.4 7.58-10.52-1.31z"/>
        </g>
        <g class="edge">
            <title>:feature:settings-&gt;:core:domain</title>
            <path fill="none" stroke="#000" d="M408.47-293.6c-57.14 12.54-148.74 32.64-208.4 45.73"/>
            <path stroke="#000" d="m200.94-244.47-10.52-1.28 9.02-5.56z"/>
        </g>
        <g class="edge">
            <title>:feature:settings-&gt;:core:ui</title>
            <path fill="none" stroke="#000" d="M455.24-287.7c-2.24 7.46-4.91 16.38-7.42 24.73"/>
            <path stroke="#000" d="m451.23-262.13-6.23 8.58-.48-10.59z"/>
        </g>
        <g class="edge">
            <title>:core:domain-&gt;:core:common</title>
            <path fill="none" stroke="#000" d="M131.92-215.82C115.79-184.15 87.76-115.77 119.43-72c19.83 27.4 54.31 40.88 86.29 47.42"/>
            <path stroke="#000" d="m206.2-28.05 9.21 5.23-10.46 1.66z"/>
        </g>
        <g class="node">
            <title>:core:data</title>
            <ellipse cx="182.43" cy="-162" fill="none" stroke="#000" rx="47.26" ry="18"/>
            <text xml:space="preserve" x="182.43" y="-156.95" font-family="Times New Roman,serif" font-size="14" text-anchor="middle">:core:data</text>
        </g>
        <g class="edge">
            <title>:core:domain-&gt;:core:data</title>
            <path fill="none" stroke="red" stroke-width="2" d="M151.36-216.05c4.63 7.91 10.26 17.51 15.44 26.36"/>
            <path fill="red" stroke="red" stroke-width="2" d="m169.04-192.8 2.03 10.4-8.07-6.86z"/>
        </g>
        <g class="edge">
            <title>:core:network-&gt;:core:common</title>
            <path fill="none" stroke="red" stroke-width="2" d="M211.31-72.76c11.61 9.03 26.28 20.43 39.1 30.41"/>
            <path fill="red" stroke="red" stroke-width="2" d="m251.23-46.15 5.74 8.9-10.04-3.37z"/>
        </g>
        <g class="edge">
            <title>:core:ui-&gt;:core:common</title>
            <path fill="none" stroke="#000" d="M446.47-215.98c11.87 31.73 31.65 100.6-.04 143.98-20.84 28.53-57.22 42.06-90.61 48.34"/>
            <path stroke="#000" d="m356.56-20.24-10.44-1.81 9.29-5.09z"/>
        </g>
        <g class="node">
            <title>:core:model</title>
            <ellipse cx="382.43" cy="-90" fill="none" stroke="#000" rx="55.45" ry="18"/>
            <text xml:space="preserve" x="382.43" y="-84.95" font-family="Times New Roman,serif" font-size="14" text-anchor="middle">:core:model</text>
        </g>
        <g class="edge">
            <title>:core:ui-&gt;:core:model</title>
            <path fill="none" stroke="#000" d="M437.86-215.62c-2.16 18.42-7.02 48.07-17.43 71.62-4.21 9.53-10.3 19.05-16.38 27.34"/>
            <path stroke="#000" d="m406.84-114.54-8.88 5.78 3.34-10.05z"/>
        </g>
        <g class="node">
            <title>:core:designsystem</title>
            <ellipse cx="329.43" cy="-162" fill="none" stroke="#000" rx="82.06" ry="18"/>
            <text xml:space="preserve" x="329.43" y="-156.95" font-family="Times New Roman,serif" font-size="14" text-anchor="middle">:core:designsystem</text>
        </g>
        <g class="edge">
            <title>:core:ui-&gt;:core:designsystem</title>
            <path fill="none" stroke="#000" d="m417.17-218.83-52.8 33.6"/>
            <path stroke="#000" d="m366.73-182.58-10.32 2.41 6.56-8.32z"/>
        </g>
        <g class="edge">
            <title>:core:data-&gt;:core:common</title>
            <path fill="none" stroke="#000" d="M212.65-147.84c16.87 8.88 36.84 22.2 48.78 39.84 12.06 17.82 16.67 41.86 18.34 60.47"/>
            <path stroke="#000" d="m283.25-47.93-2.85 10.21-4.13-9.76z"/>
        </g>
        <g class="edge">
            <title>:core:data-&gt;:core:network</title>
            <path fill="none" stroke="red" stroke-width="2" d="M184.41-143.7c.83 7.29 1.83 15.97 2.76 24.16"/>
            <path fill="red" stroke="red" stroke-width="2" d="m190.48-121.44-2.34 10.33-4.62-9.54z"/>
        </g>
        <g class="edge">
            <title>:core:data-&gt;:core:model</title>
            <path fill="none" stroke="#000" d="M216.36-149.13c32.66 11.44 82.35 28.83 118.86 41.61"/>
            <path stroke="#000" d="m335.91-110.99 8.28 6.61H333.6z"/>
        </g>
    </g>
</svg>
