<svg xmlns="http://www.w3.org/2000/svg" width="600" height="116pt" viewBox="0 0 450 116">
    <g class="graph" transform="translate(4 112)">
        <title>G</title>
        <path fill="#fff" d="M-4 4v-116h449.51V4z"/>
        <g class="node">
            <title>:core:ui</title>
            <ellipse cx="247.06" cy="-90" fill="none" stroke="#000" rx="39.07" ry="18"/>
            <text xml:space="preserve" x="247.06" y="-84.95" font-family="Times New Roman,serif" font-size="14" text-anchor="middle">:core:ui</text>
        </g>
        <g class="node">
            <title>:core:designsystem</title>
            <ellipse cx="82.06" cy="-18" fill="none" stroke="#000" rx="82.06" ry="18"/>
            <text xml:space="preserve" x="82.06" y="-12.95" font-family="Times New Roman,serif" font-size="14" text-anchor="middle">:core:designsystem</text>
        </g>
        <g class="edge">
            <title>:core:ui-&gt;:core:designsystem</title>
            <path fill="none" stroke="red" stroke-width="2" d="M219.07-77.13c-24.65 10.46-61.05 25.9-90.13 38.24"/>
            <path fill="red" stroke="red" stroke-width="2" d="m131.95-36.36-10.58.68 7.84-7.13z"/>
        </g>
        <g class="node">
            <title>:core:common</title>
            <ellipse cx="247.06" cy="-18" fill="none" stroke="#000" rx="65.17" ry="18"/>
            <text xml:space="preserve" x="247.06" y="-12.95" font-family="Times New Roman,serif" font-size="14" text-anchor="middle">:core:common</text>
        </g>
        <g class="edge">
            <title>:core:ui-&gt;:core:common</title>
            <path fill="none" stroke="#000" d="M247.06-71.7v24.16"/>
            <path stroke="#000" d="m250.56-47.62-3.5 10-3.5-10z"/>
        </g>
        <g class="node">
            <title>:core:model</title>
            <ellipse cx="386.06" cy="-18" fill="none" stroke="#000" rx="55.45" ry="18"/>
            <text xml:space="preserve" x="386.06" y="-12.95" font-family="Times New Roman,serif" font-size="14" text-anchor="middle">:core:model</text>
        </g>
        <g class="edge">
            <title>:core:ui-&gt;:core:model</title>
            <path fill="none" stroke="#000" d="M272.88-76c20.79 10.47 50.35 25.36 74.05 37.29"/>
            <path stroke="#000" d="m348.31-41.93 7.35 7.62-10.5-1.37z"/>
        </g>
    </g>
</svg>
